{"title":"Every.Which.Way.But.Loose.1978.720p.BluRay.H264.AAC-RARBG","uid":12110802,"size":1487865610,"categoryP":"video","categoryS":"hd___movies","magnet":"?xt=urn:btih:a9fd7c2de8afd1fce4ac215c62edaed1844608b2&amp;dn=Every.Which.Way.But.Loose.1978.720p.BluRay.H264.AAC-RARBG&amp;tr=udp%3A%2F%2Ftracker.openbittorrent.com%3A80&amp;tr=udp%3A%2F%2Fopen.demonii.com%3A1337&amp;tr=udp%3A%2F%2Ftracker.coppersurfer.tk%3A6969&amp;tr=udp%3A%2F%2Fexodus.desync.com%3A6969","seeders":0,"leechers":0,"uploader":null,"files":4,"time":1436566105,"description":"Video\nID                                       : 1\nFormat                                   : AVC\nFormat/Info                              : Advanced Video Codec\nFormat profile                           : &lt;a class=&quot;__cf_email__&quot; href=&quot;/cdn-cgi/l/email-protection&quot; data-cfemail=&quot;93dbfaf4fbd3dfa7bda2&quot;&gt;[email&amp;#160;protected]&lt;/a&gt;&lt;script data-cfhash='f9e31' type=&quot;text/javascript&quot;&gt;\n/* &lt;![CDATA[ */!function(){try{var t=&quot;currentScript&quot;in document?document.currentScript:function(){for(var t=document.getElementsByTagName(&quot;script&quot;),e=t.length;e--;)if(t[e].getAttribute(&quot;data-cfhash&quot;))return t[e]}();if(t&amp;&amp;t.previousSibling){var e,r,n,i,c=t.previousSibling,a=c.getAttribute(&quot;data-cfemail&quot;);if(a){for(e=&quot;&quot;,r=parseInt(a.substr(0,2),16),n=2;a.length-n;n+=2)i=parseInt(a.substr(n,2),16)^r,e+=String.fromCharCode(i);e=document.createTextNode(e),c.parentNode.replaceChild(e,c)}t.parentNode.removeChild(t);}}catch(u){}}()/* ]]&gt; */&lt;/script&gt;\nFormat settings, CABAC                   : Yes\nFormat settings, ReFrames                : 4 frames\nCodec ID                                 : avc1\nCodec ID/Info                            : Advanced Video Coding\nDuration                                 : 1h 54mn\nBit rate                                 : 1 500 Kbps\nWidth                                    : 1 280 pixels\nHeight                                   : 720 pixels\nDisplay aspect ratio                     : 16:9\nFrame rate mode                          : Constant\nFrame rate                               : 23.976 fps\nColor space                              : YUV\nChroma subsampling                       : 4:2:0\nBit depth                                : 8 bits\nScan type                                : Progressive\nBits/(Pixel*Frame)                       : 0.068\nStream size                              : 1.20 GiB (87%)\nWriting library                          : x264 core 144 r2525M 40bb568\nEncoding settings                        : cabac=1 / ref=4 / deblock=1:-1:-1 / analyse=0x3:0x113 / me=umh / subme=9 / psy=1 / psy_rd=1.00:0.15 / mixed_ref=1 / me_range=24 / chroma_me=1 / trellis=2 / 8x8dct=1 / cqm=0 / deadzone=21,11 / fast_pskip=1 / chroma_qp_offset=-3 / threads=32 / lookahead_threads=4 / sliced_threads=0 / nr=0 / decimate=1 / interlaced=0 / bluray_compat=0 / constrained_intra=0 / bframes=3 / b_pyramid=2 / b_adapt=1 / b_bias=0 / direct=1 / weightb=1 / open_gop=0 / weightp=2 / keyint=250 / keyint_min=25 / scenecut=40 / intra_refresh=0 / rc_lookahead=50 / rc=2pass / mbtree=1 / bitrate=1500 / ratetol=1.0 / qcomp=0.60 / qpmin=0 / qpmax=69 / qpstep=4 / cplxblur=20.0 / qblur=0.5 / vbv_maxrate=31250 / vbv_bufsize=31250 / nal_hrd=none / filler=0 / ip_ratio=1.40 / aq=3:1.00\nEncoded date                             : UTC 1904-01-01 00:00:00\nTagged date                              : UTC 1904-01-01 00:00:00\n\nAudio\nID                                       : 2\nFormat                                   : AAC\nFormat/Info                              : Advanced Audio Codec\nFormat profile                           : LC\nCodec ID                                 : 40\nDuration                                 : 1h 54mn\nDuration_LastFrame                       : 32ms\nBit rate mode                            : Constant\nBit rate                                 : 224 Kbps\nChannel(s)                               : 2 channels\nChannel(s)_Original                      : 6 channels\nChannel positions                        : Front: L C R, Side: L R, LFE\nSampling rate                            : 48.0 KHz\nCompression mode                         : Lossy\nStream size                              : 184 MiB (13%)\nLanguage                                 : English\nEncoded date                             : UTC 1904-01-01 00:00:00\nTagged date                              : UTC 1904-01-01 00:00:00\n\nMenu #1\nID                                       : 3\nCodec ID                                 : text\nDuration                                 : 1h 54mn\nLanguage                                 : English\nEncoded date                             : UTC 1904-01-01 00:00:00\nTagged date                              : UTC 1904-01-01 00:00:00\nBit rate mode                            : CBR\nDuration_FirstFrame                      : 43\nDuration_LastFrame                       : -21117\n00:00:00.000                             : 00:00:00.000\n00:05:00.043                             : 00:05:00.000\n00:10:00.043                             : 00:10:00.000\n00:15:00.043                             : 00:15:00.000\n00:20:00.043                             : 00:20:00.000\n00:25:00.043                             : 00:25:00.000\n00:30:00.043                             : 00:30:00.000\n00:35:00.043                             : 00:35:00.000\n00:40:00.043                             : 00:40:00.000\n00:45:00.043                             : 00:45:00.000\n00:50:00.043                             : 00:50:00.000\n00:55:00.043                             : 00:55:00.000\n01:00:00.043                             : 01:00:00.000\n01:05:00.043                             : 01:05:00.000\n01:10:00.043                             : 01:10:00.000\n01:15:00.043                             : 01:15:00.000\n01:20:00.043                             : 01:20:00.000\n01:25:00.043                             : 01:25:00.000\n01:30:00.043                             : 01:30:00.000\n01:35:00.043                             : 01:35:00.000\n01:40:00.043                             : 01:40:00.000\n01:45:00.043                             : 01:45:00.000\n01:50:00.043                             : 01:50:00.000\n\nMenu #2\n00:00:00.043                             : 00:00:00.000\n00:05:00.043                             : 00:05:00.000\n00:10:00.043                             : 00:10:00.000\n00:15:00.043                             : 00:15:00.000\n00:20:00.043                             : 00:20:00.000\n00:25:00.043                             : 00:25:00.000\n00:30:00.043                             : 00:30:00.000\n00:35:00.043                             : 00:35:00.000\n00:40:00.043                             : 00:40:00.000\n00:45:00.043                             : 00:45:00.000\n00:50:00.043                             : 00:50:00.000\n00:55:00.043                             : 00:55:00.000\n01:00:00.043                             : 01:00:00.000\n01:05:00.043                             : 01:05:00.000\n01:10:00.043                             : 01:10:00.000\n01:15:00.043                             : 01:15:00.000\n01:20:00.043                             : 01:20:00.000\n01:25:00.043                             : 01:25:00.000\n01:30:00.043                             : 01:30:00.000\n01:35:00.043                             : 01:35:00.000\n01:40:00.043                             : 01:40:00.000\n01:45:00.043                             : 01:45:00.000\n01:50:00.043                             : 01:50:00.000","torrent":{"xt":"urn:btih:a9fd7c2de8afd1fce4ac215c62edaed1844608b2","amp;dn":"Every.Which.Way.But.Loose.1978.720p.BluRay.H264.AAC-RARBG","amp;tr":["udp%3A%2F%2Ftracker.openbittorrent.com%3A80","udp%3A%2F%2Fopen.demonii.com%3A1337","udp%3A%2F%2Ftracker.coppersurfer.tk%3A6969","udp%3A%2F%2Fexodus.desync.com%3A6969"],"infoHash":"a9fd7c2de8afd1fce4ac215c62edaed1844608b2","infoHashBuffer":{"type":"Buffer","data":[169,253,124,45,232,175,209,252,228,172,33,92,98,237,174,209,132,70,8,178]},"announce":[],"urlList":[]}}